<svg xmlns="http://www.w3.org/2000/svg" width="720" height="480" viewBox="0 0 720 480" role="img" aria-labelledby="title desc">
  <title id="title">Keyword Strategy</title>
  <desc id="desc">Premium minimal industrial strategy illustration for I-TOP Therm.</desc>
  <rect width="720" height="480" fill="#f6f1e8"/>
  <path d="M0 0h720v480H0z" fill="url(#grid)"/>
  <defs>
    <pattern id="grid" width="44" height="44" patternUnits="userSpaceOnUse">
      <path d="M44 0H0v44" fill="none" stroke="#d8d2c5" stroke-width="1" opacity=".45"/>
    </pattern>
  </defs>
  <path d="M40 40v400" stroke="#d8d2c5" stroke-width="1" opacity=".42"/><path d="M105 40v400" stroke="#d8d2c5" stroke-width="1" opacity=".42"/><path d="M170 40v400" stroke="#d8d2c5" stroke-width="1" opacity=".42"/><path d="M235 40v400" stroke="#d8d2c5" stroke-width="1" opacity=".42"/><path d="M300 40v400" stroke="#d8d2c5" stroke-width="1" opacity=".42"/><path d="M365 40v400" stroke="#d8d2c5" stroke-width="1" opacity=".42"/><path d="M430 40v400" stroke="#d8d2c5" stroke-width="1" opacity=".42"/><path d="M495 40v400" stroke="#d8d2c5" stroke-width="1" opacity=".42"/><path d="M560 40v400" stroke="#d8d2c5" stroke-width="1" opacity=".42"/><path d="M625 40v400" stroke="#d8d2c5" stroke-width="1" opacity=".42"/>
  <path d="M70 410C230 335 360 335 510 410S800 485 640 410" fill="none" stroke="#143c35" stroke-width="5" stroke-linecap="round" opacity=".23"/>
  
  <circle cx="600" cy="90" r="28" fill="#c8753e" opacity=".9"/>
       <path d="M80 392h560" stroke="#143c35" stroke-width="3" opacity=".35"/>
       <text x="70" y="82" font-family="Arial, sans-serif" font-size="26" fill="#143c35" font-weight="700">Keyword Strategy</text>
       <text x="70" y="116" font-family="Arial, sans-serif" font-size="16" fill="#47534e">I-TOP</text>
       <path d="M140 170h210v60h-210z" fill="none" stroke="#143c35" stroke-width="6" stroke-linecap="round" stroke-linejoin="round"/><path d="M380 170h210v60h-210z" fill="none" stroke="#c8753e" stroke-width="8" stroke-linecap="round" stroke-linejoin="round"/><path d="M210 280h320v60h-320z" fill="none" stroke="#143c35" stroke-width="6" stroke-linecap="round" stroke-linejoin="round"/>
</svg>