<svg xmlns="http://www.w3.org/2000/svg" width="720" height="480" viewBox="0 0 720 480" role="img" aria-labelledby="title desc">
  <title id="title">Competitive marketing gap</title>
  <desc id="desc">Abstract industrial comparison and digital growth illustration.</desc>
  <defs>
    <pattern id="grid" width="44" height="44" patternUnits="userSpaceOnUse">
      <path d="M44 0H0v44" fill="none" stroke="#d8d2c5" stroke-width="1" opacity=".45"/>
    </pattern>
    <linearGradient id="panel" x1="0" x2="1" y1="0" y2="1">
      <stop offset="0" stop-color="#fffdf8"/>
      <stop offset="1" stop-color="#f6f1e8"/>
    </linearGradient>
  </defs>
  <rect width="720" height="480" fill="#f6f1e8"/>
  <rect width="720" height="480" fill="url(#grid)"/>
  <circle cx="612" cy="88" r="30" fill="#c8753e" opacity=".9"/>
  <path d="M70 410C190 345 300 345 420 410S650 470 650 410" fill="none" stroke="#123c35" stroke-width="5" stroke-linecap="round" opacity=".2"/>
  <path d="M92 138h196v246H92z" fill="url(#panel)" stroke="#123c35" stroke-width="6"/>
  <path d="M454 138h196v246H454z" fill="url(#panel)" stroke="#123c35" stroke-width="6"/>
  <path d="M328 178h84" stroke="#c8753e" stroke-width="8" stroke-linecap="round"/>
  <path d="M328 240h84" stroke="#123c35" stroke-width="8" stroke-linecap="round"/>
  <path d="M328 302h84" stroke="#c8753e" stroke-width="8" stroke-linecap="round"/>
  <circle cx="190" cy="206" r="42" fill="none" stroke="#c8753e" stroke-width="8"/>
  <path d="M150 298h80M150 332h122" stroke="#123c35" stroke-width="10" stroke-linecap="round"/>
  <circle cx="552" cy="208" r="42" fill="none" stroke="#123c35" stroke-width="8"/>
  <path d="M512 298h80M512 332h122" stroke="#c8753e" stroke-width="10" stroke-linecap="round"/>
  <path d="M188 206h366" stroke="#123c35" stroke-width="3" stroke-dasharray="10 14" opacity=".45"/>
  <circle cx="370" cy="206" r="16" fill="#c8753e"/>
</svg>
